<?xml version="1.0" standalone="no"?>
<!DOCTYPE svg PUBLIC "-//W3C//DTD SVG 20010904//EN"
 "http://www.w3.org/TR/2001/REC-SVG-20010904/DTD/svg10.dtd">
<svg version="1.0" xmlns="http://www.w3.org/2000/svg"
 width="378.000000pt" height="322.000000pt" viewBox="0 0 378.000000 322.000000"
 preserveAspectRatio="xMidYMid meet">

<g transform="translate(0.000000,322.000000) scale(0.100000,-0.100000)"
fill="#000000" stroke="none">
<path d="M1970 2627 c0 -2 9 -26 21 -52 17 -39 20 -62 17 -139 -4 -107 -27
-163 -107 -262 l-50 -62 92 -4 c65 -3 106 -10 139 -25 l47 -21 43 21 c37 19
64 22 186 25 78 2 142 7 142 11 0 10 -368 371 -457 450 -40 35 -73 61 -73 58z
m319 -302 c30 -31 48 -55 40 -54 -22 4 -98 -12 -105 -22 -3 -5 -14 -9 -25 -9
-10 0 -19 -4 -19 -10 0 -5 -9 -10 -20 -10 -11 0 -20 -4 -20 -9 0 -6 -21 -13
-47 -17 -32 -5 -54 -15 -70 -33 -23 -26 -23 -26 3 31 14 32 31 90 39 130 7 40
13 64 14 54 1 -16 4 -17 13 -8 7 7 28 12 48 12 19 0 42 4 49 9 20 13 37 2 100
-64z"/>
<path d="M1800 2063 c-8 -3 -37 -25 -65 -48 -27 -23 -62 -50 -77 -60 -33 -21
-35 -39 -8 -83 14 -22 40 -43 78 -60 51 -24 68 -27 172 -27 106 0 119 2 173
29 61 29 101 76 93 109 -5 22 -1 22 37 -5 29 -21 47 -23 184 -28 163 -5 193
-14 160 -47 -15 -15 -43 -18 -190 -21 -166 -4 -174 -5 -232 -33 l-60 -29 255
2 c283 3 315 10 346 70 14 27 14 32 0 54 -34 51 -60 59 -206 62 -162 3 -180 6
-180 31 0 28 18 31 171 31 l140 0 -23 31 -23 30 -160 -3 c-149 -3 -162 -5
-192 -26 -18 -13 -33 -32 -33 -43 0 -25 -5 -24 -38 6 -40 38 -140 65 -231 64
-42 0 -83 -3 -91 -6z m207 -79 c60 -45 57 -91 -9 -125 -57 -29 -168 -24 -216
9 -56 40 -36 102 43 130 47 18 150 10 182 -14z"/>
<path d="M1557 1862 c-12 -13 -17 -37 -17 -75 l0 -57 -50 0 -50 0 -1 -37 c-6
-133 29 -203 133 -273 95 -63 195 -90 337 -90 184 0 328 33 490 113 132 64
239 181 265 291 6 24 4 28 -10 22 -62 -24 -124 -27 -469 -24 -362 3 -372 4
-440 28 -51 18 -83 37 -119 72 -27 26 -51 48 -51 48 -1 0 -9 -8 -18 -18z"/>
<path d="M1363 1590 c13 -48 34 -97 47 -110 14 -14 14 -14 0 -5 -8 5 -23 18
-32 30 -10 11 -18 15 -18 9 0 -5 12 -22 28 -36 30 -29 182 -128 196 -128 5 0
-17 17 -50 38 -71 46 -119 99 -151 166 -13 28 -22 44 -20 36z"/>
<path d="M1525 1110 c-111 -23 -175 -73 -175 -134 0 -61 77 -116 185 -132 28
-4 59 -13 70 -20 30 -19 124 -44 165 -44 20 0 58 7 84 16 43 15 46 18 33 32
-13 12 -23 13 -62 3 -45 -11 -115 -6 -115 8 0 4 24 15 54 24 65 21 116 72 116
117 0 42 -42 86 -107 110 -63 23 -187 34 -248 20z m193 -64 c17 -9 39 -27 48
-40 44 -68 -80 -138 -203 -115 -65 13 -103 43 -103 83 0 37 18 57 70 81 43 19
142 15 188 -9z"/>
<path d="M335 1023 c94 -87 95 -89 95 -134 l0 -46 53 1 52 1 1 45 c1 43 4 47
94 132 l94 88 -55 0 c-53 0 -56 -1 -114 -60 -33 -33 -64 -60 -70 -60 -6 0 -37
27 -70 60 -59 60 -60 60 -117 60 l-58 0 95 -87z"/>
<path d="M862 980 c-56 -71 -102 -131 -102 -132 0 -2 22 -4 49 -6 45 -3 52 0
72 28 l23 30 114 0 c113 0 113 0 138 -29 21 -26 30 -29 74 -28 28 1 50 4 50 7
0 3 -45 61 -99 130 l-98 125 -59 3 -60 3 -102 -131z m196 25 c17 -24 32 -49
32 -55 0 -11 -132 -15 -143 -4 -6 6 63 103 73 103 3 0 20 -20 38 -44z"/>
<path d="M2012 978 l3 -133 183 -1 182 -1 0 23 c0 24 0 24 -131 24 l-130 0 3
31 3 31 108 1 c105 1 107 1 107 24 0 23 -2 23 -110 23 l-110 0 0 35 0 35 125
0 c118 0 125 1 125 20 0 19 -7 20 -180 20 l-181 0 3 -132z"/>
<path d="M2520 977 l0 -134 183 1 c181 1 182 1 185 24 3 22 3 22 -133 22
l-136 0 3 33 3 32 113 0 c110 0 112 0 112 23 0 22 -2 22 -116 22 l-115 0 3 33
3 32 128 3 c119 2 127 4 127 22 0 19 -8 20 -180 20 l-180 0 0 -133z"/>
<path d="M3012 978 l3 -133 53 -3 52 -3 0 86 0 86 124 -85 c106 -73 131 -86
165 -86 l41 0 0 135 0 135 -50 0 -50 0 0 -85 c0 -47 -2 -85 -5 -85 -2 0 -58
38 -124 85 -108 77 -124 85 -166 85 l-46 0 3 -132z"/>
<path d="M400 730 c-19 -5 -45 -21 -58 -35 -21 -24 -21 -29 -9 -49 21 -32 66
-49 128 -49 137 0 178 101 54 132 -49 12 -65 12 -115 1z m132 -21 c10 -5 22
-18 28 -29 9 -16 6 -25 -14 -45 -21 -21 -35 -25 -84 -25 -45 0 -66 5 -86 21
-31 24 -33 40 -7 63 38 34 114 41 163 15z"/>
<path d="M707 733 c-4 -3 -7 -35 -7 -70 0 -49 3 -63 15 -63 12 0 15 14 15 70
0 64 -6 81 -23 63z"/>
<path d="M850 671 l0 -69 71 -4 c39 -2 73 0 76 5 2 4 -23 7 -56 7 l-61 0 0 65
c0 51 -3 65 -15 65 -12 0 -15 -14 -15 -69z"/>
<path d="M1273 733 c-12 -2 -27 -11 -34 -20 -11 -13 -10 -17 6 -29 10 -8 35
-16 54 -20 52 -8 83 -23 79 -37 -6 -16 -82 -21 -119 -8 -30 10 -42 -2 -13 -13
33 -13 141 -6 154 9 22 26 3 43 -59 56 -107 21 -103 56 4 47 62 -5 75 6 18 16
-40 6 -54 6 -90 -1z"/>
<path d="M1520 669 l0 -68 90 -3 c50 -2 90 0 90 5 0 4 -34 7 -75 7 -73 0 -75
1 -75 25 0 23 3 24 68 28 l67 3 -67 2 c-65 2 -68 3 -68 27 0 24 2 25 70 25 43
0 70 4 70 11 0 7 -30 9 -85 8 l-85 -3 0 -67z"/>
<path d="M1828 734 c-15 -5 -18 -17 -18 -70 0 -50 3 -64 15 -64 8 0 15 9 15
20 0 17 7 20 48 20 36 0 54 -5 67 -20 10 -11 25 -20 34 -20 12 1 10 6 -8 21
-13 11 -22 21 -20 22 2 1 13 7 24 13 28 15 31 50 6 64 -24 12 -136 22 -163 14z
m152 -30 c23 -27 -11 -48 -78 -49 l-57 0 -3 33 -3 32 64 0 c46 0 68 -4 77 -16z"/>
<path d="M2100 734 c0 -3 21 -35 47 -70 61 -84 75 -84 136 1 50 69 53 75 37
75 -5 0 -30 -28 -55 -62 -25 -35 -48 -62 -51 -61 -3 1 -26 29 -50 62 -39 53
-64 75 -64 55z"/>
<path d="M2430 670 c0 -40 4 -70 10 -70 6 0 10 30 10 70 0 40 -4 70 -10 70 -6
0 -10 -30 -10 -70z"/>
<path d="M2630 729 c-76 -23 -94 -75 -37 -109 34 -21 149 -28 176 -11 8 5 -12
7 -51 4 -79 -7 -128 13 -128 52 0 46 67 69 155 51 27 -5 37 -4 30 3 -15 15
-106 21 -145 10z"/>
<path d="M2900 668 l0 -68 93 2 92 2 -82 3 c-81 4 -83 5 -83 28 0 24 3 25 73
27 l72 2 -70 5 c-63 5 -70 8 -73 29 -3 21 0 22 72 22 47 0 76 4 76 11 0 7 -30
9 -85 8 l-85 -3 0 -68z"/>
<path d="M3208 728 c-53 -19 -30 -52 44 -63 26 -4 55 -13 65 -21 16 -12 16
-15 3 -24 -19 -12 -100 -13 -120 -1 -8 6 -18 7 -24 4 -17 -11 27 -22 90 -22
111 -2 130 49 26 69 -69 14 -87 23 -77 40 4 7 29 11 64 10 72 -2 83 0 46 10
-42 11 -85 10 -117 -2z"/>
</g>
</svg>
